<svg id="Layer_1" data-name="Layer 1" xmlns="http://www.w3.org/2000/svg" viewBox="0 0 75.8 52"><defs><style>.cls-1{fill:#fff;}</style></defs><title>back</title><g id="a"><path class="cls-1" d="M35.9,45.1A19.2,19.2,0,1,0,16.8,25.8,19.2,19.2,0,0,0,35.9,45.1Z"/><path d="M35.9,45.1A19.2,19.2,0,1,1,55.2,25.9,19.3,19.3,0,0,1,35.9,45.1ZM27.5,34h5.7c2,0,3.9.1,5.9,0A5.6,5.6,0,0,0,44,30.5a5.7,5.7,0,0,0-.8-6,6,6,0,0,0-4.9-2.2H30v-.2l3.4-3.4-.7-.8-5.1,5,5,5.1,1.1-.9-3.6-3.5h9a4.6,4.6,0,0,1-.6,9.1h-11Z"/><path class="cls-1" d="M27.5,34V32.8h11a4.6,4.6,0,0,0,.6-9.1h-9l3.6,3.5-1.1.9-5-5.1,5.1-5,.7.8L30,22.1v.2h8.3a6,6,0,0,1,4.9,2.2,5.7,5.7,0,0,1,.8,6A5.6,5.6,0,0,1,39.1,34c-2,.1-3.9,0-5.9,0Z"/></g></svg>