<svg id="Layer_1" xmlns="http://www.w3.org/2000/svg" viewBox="0 0 26.1 22" width="26.1" height="22"><style>.st0{fill:#fff}</style><path class="st0" d="M13.1 1.7c6.4 0 11.5 3.7 11.5 8.2 0 4.5-5.2 8.2-11.5 8.2-1.7 0-3.3-.3-4.8-.7l-4.3 3 .8-4.8c-2-1.5-3.2-3.5-3.2-5.6 0-4.6 5.1-8.3 11.5-8.3zm0-1.7c-3.4 0-6.6.9-9 2.7C1.5 4.5 0 7.2 0 10c0 2.3 1 4.4 2.8 6.2l-.5 3.1c-.2.9.3 1.9 1.1 2.4.3.2.7.3 1.2.3s.9-.1 1.3-.4L9 19.4c1.3.3 2.6.5 4 .5 3.3 0 6.5-.9 8.9-2.7 2.6-1.9 4.1-4.5 4.1-7.3s-1.5-5.4-4.1-7.3C19.6.9 16.4 0 13.1 0zM9.7 9.7c0-1-.8-1.8-1.8-1.8s-1.8.8-1.8 1.8.8 1.8 1.8 1.8c1-.1 1.8-.8 1.8-1.8zm5.1 0c0-1-.8-1.8-1.8-1.8s-1.8.8-1.8 1.8.8 1.8 1.8 1.8c1-.1 1.8-.8 1.8-1.8zm5.1 0c0-1-.8-1.8-1.8-1.8s-1.8.8-1.8 1.8.8 1.8 1.8 1.8c1-.1 1.8-.8 1.8-1.8z"/></svg>