<svg xmlns="http://www.w3.org/2000/svg" viewBox="0 0 30 30"><defs><style>.cls-1{fill:#274960;}.cls-2{fill:#fff;}</style></defs><title>IBM HR Pictograms</title><g id="artwork"><circle class="cls-1" cx="15" cy="15" r="12.25"/><path class="cls-2" d="M14.23,21.51a1.3,1.3,0,0,1-1.45-1.31,2.37,2.37,0,0,1,.05-.43l1.47-7.39h2.13L15,19.78h1.1l-.35,1.73Zm.33-11.28a3.67,3.67,0,0,1,.09-.66,1.3,1.3,0,0,1,1.47-1.08c.77,0,1.1.33,1.1.8a3,3,0,0,1-.09.66,1.32,1.32,0,0,1-1.47,1.11C14.9,11.06,14.56,10.72,14.56,10.23Z"/></g></svg>