<svg xmlns="http://www.w3.org/2000/svg" viewBox="0 0 30 30"><defs><style>.cls-1{fill:none;stroke:#fff;stroke-linecap:round;stroke-linejoin:round;stroke-width:0.87px;}</style></defs><title>IBM HR Pictograms</title><g id="artwork"><path id="_Path_" data-name="&lt;Path&gt;" class="cls-1" d="M19.76,10.39A8.45,8.45,0,1,1,11.31,25"/><path id="_Path_2" data-name="&lt;Path&gt;" class="cls-1" d="M13.38,9.53a8.38,8.38,0,0,1,6.38.86"/><path id="_Path_3" data-name="&lt;Path&gt;" class="cls-1" d="M11.31,25a8.46,8.46,0,0,1-4-5.35"/><line id="_Path_4" data-name="&lt;Path&gt;" class="cls-1" x1="3.52" y1="10.77" x2="5.9" y2="12.15"/><line id="_Path_5" data-name="&lt;Path&gt;" class="cls-1" x1="8.6" y1="5.7" x2="9.97" y2="8.08"/><line id="_Path_6" data-name="&lt;Path&gt;" class="cls-1" x1="15.53" y1="3.84" x2="15.53" y2="6.59"/><line id="_Path_7" data-name="&lt;Path&gt;" class="cls-1" x1="22.47" y1="5.7" x2="21.1" y2="8.08"/><line id="_Path_8" data-name="&lt;Path&gt;" class="cls-1" x1="27.55" y1="10.77" x2="25.17" y2="12.15"/><path id="_Path_9" data-name="&lt;Path&gt;" class="cls-1" d="M11.31,25c-1.8-1-1.37-5.16,1-9.21S18,9.35,19.76,10.39"/><path id="_Path_10" data-name="&lt;Path&gt;" class="cls-1" d="M22.82,22c-1.48,2.55-5.95,2.73-10,.39S6.7,16.1,8.18,13.54c.85-1.48,2.72-2.16,4.93-2"/></g></svg>