<?xml version="1.0" encoding="UTF-8"?>
<svg width="388px" height="363px" viewBox="0 0 388 363" version="1.1" xmlns="http://www.w3.org/2000/svg" xmlns:xlink="http://www.w3.org/1999/xlink">
    <!-- Generator: Sketch 49.3 (51167) - http://www.bohemiancoding.com/sketch -->
    <title>watson graphic watermark</title>
    <desc>Created with Sketch.</desc>
    <defs></defs>
    <g id="watson-graphic-watermark" stroke="none" stroke-width="1" fill="none" fill-rule="evenodd" opacity="0.08">
        <g id="Group" fill="#000000">
            <path d="M101.523876,78.0138195 C102.963834,80.5620627 105.577093,82 108.243683,82 C109.576978,82 110.910273,81.6359652 112.119128,80.9260975 C115.834577,78.7236872 117.096763,73.8638233 114.963491,70.0596601 L93.4707731,31.9816249 C91.3375009,28.1774617 86.5909702,26.8669366 82.8755211,29.0693469 C79.160072,31.2535554 77.897886,36.1134193 80.0489354,39.8993808 L101.523876,78.0138195 Z" id="Mask"></path>
            <path d="M194.009164,58 C198.426117,58 202,54.56231 202,50.2960486 L202,7.68632219 C202,3.43768997 198.426117,0 194.009164,0 C189.592211,0 186,3.43768997 186,7.68632219 L186,50.2960486 C186,54.56231 189.592211,58 194.009164,58" id="Mask"></path>
            <path d="M275.88738,80.926207 C277.113573,81.6360024 278.44639,82 279.761437,82 C282.427073,82 285.039396,80.5440096 286.478839,78.0142262 L307.963862,39.9036762 C310.09637,36.1181011 308.834636,31.258733 305.120517,29.0565474 C301.406398,26.8725617 296.661567,28.1829531 294.529058,31.9867282 L273.044036,70.0608783 C270.893756,73.8646534 272.173261,78.7240215 275.88738,80.926207" id="Mask"></path>
            <path d="M386.950564,110.88088 C384.789161,107.165424 380.037649,105.903235 376.304317,108.036511 L338.899551,129.529274 C335.166219,131.66255 333.897958,136.426868 336.041498,140.142325 C337.488387,142.61337 340.114223,144 342.811511,144 C344.13336,144 345.473072,143.680009 346.705608,142.968916 L384.092511,121.476154 C387.825843,119.342878 389.111966,114.596337 386.950564,110.88088" id="Mask"></path>
            <path d="M49.099865,129.529274 L11.6894956,108.036511 C7.97347035,105.903235 3.20338026,107.165424 1.04165404,110.88088 C-1.10220667,114.596337 0.166244254,119.342878 3.90013499,121.476154 L41.2926389,142.968916 C42.5253588,143.680009 43.8652718,144 45.1873192,144 C47.8850106,144 50.51124,142.61337 51.958346,140.142325 C54.1022067,136.426868 52.8337557,131.66255 49.099865,129.529274" id="Mask"></path>
            <path d="M239.012797,92.6062917 C212.597013,83.7636291 183.23249,83.657091 155.166817,93.1389823 C153.218543,93.8492363 152.182974,95.9977547 152.867502,98.0042223 C153.481823,99.8331265 155.412545,100.880751 157.255506,100.419086 C177.106837,95.0033991 200.802058,95.1276935 223.584575,101.182609 C200.345706,108.675789 174.456482,129.095592 152.077662,158.500109 C132.594924,171.480001 114.393483,188.313022 102.598528,201.736823 L102.61608,201.719067 C101.334783,203.246113 101.440095,205.572195 102.914465,206.974947 C104.44149,208.448724 106.898772,208.413211 108.302934,206.850652 C115.639676,198.700487 125.117765,190.532566 135.631423,182.879579 C134.718718,184.442137 133.788461,186.004696 132.875756,187.585012 C120.255857,209.691668 111.374536,232.06467 106.389764,252.857357 C103.862273,249.749995 101.492751,246.589365 99.3338533,243.393222 C80.3776759,215.444726 73.5850457,183.785153 86.7315058,160.772922 C99.9481739,137.583128 123.801364,126.787267 156.869362,125.668617 C158.800084,125.615348 160.414869,124.088302 160.572837,122.09959 C160.730806,119.968828 159.151124,118.051142 157.044882,117.926848 C120.168096,115.92038 88.6095715,129.39745 74.7434788,153.688138 C58.4025518,182.364644 64.5282054,219.546443 87.8197308,253.052677 C92.2428388,259.40945 97.3329235,265.58866 102.932017,271.57255 C102.054416,278.444258 101.633167,285.085133 101.73848,291.335369 C101.861344,298.047269 102.475664,304.226479 103.634097,309.908511 C87.2931703,293.075491 75.5684235,272.602419 70.3379227,252.750819 C69.7938102,250.904158 67.9684006,249.732239 66.0376788,250.087366 C64.0191969,250.495762 62.6676917,252.466717 63.0713881,254.526454 C68.9688655,283.859945 83.730111,309.517872 104.52925,328.250822 C128.224472,349.593955 159.782997,363 194.009428,363 C245.085795,363 289.650364,334.92721 313.538658,293.217542 C337.286536,251.454605 339.024185,198.363116 313.486002,153.617113 C296.390338,123.662149 269.132057,102.691899 239.012797,92.6062917 M255.652109,114.712948 C262.356979,118.814665 268.728361,123.60888 274.660942,129.042323 C266.744983,126.698485 257.49507,125.526566 246.683028,125.952718 C226.182274,126.733998 209.823795,129.770334 190.428817,137.973768 C214.931431,115.334421 239.574462,105.550671 255.652109,114.712948 M131.805083,331.784335 C120.150544,324.841602 115.165772,308.576785 116.113581,287.642048 C116.148685,286.612179 116.236445,285.546798 116.306653,284.481417 C125.398597,292.418506 135.491006,299.787392 146.618985,306.26846 C172.999665,321.680972 200.784506,330.026457 226.305138,331.51799 C238.345821,332.228244 249.596663,330.932031 259.829488,328.268578 C240.820655,340.52046 218.23121,347.623 194.009428,347.623 C171.577952,347.623 150.182044,342.047506 131.805083,331.784335 M300.374646,285.529042 L300.058709,286.061732 C290.14182,302.912509 271.782411,312.927091 249.333383,315.821376 C221.390573,319.425915 186.988622,312.323375 154.76312,293.501643 C141.195412,285.582311 129.049417,276.331252 118.728831,266.298914 C122.941315,244.547385 132.015707,219.70625 146.022216,195.166973 C152.709534,183.430025 160.011173,172.634164 167.593644,162.956953 C217.44137,136.961656 284.612935,130.995522 300.304438,161.252343 L300.32199,161.252343 L300.339542,161.305613 C323.069402,201.115351 321.507273,248.365 300.374646,285.529042" id="Mask"></path>
        </g>
    </g>
</svg>